<?xml version="1.0" encoding="UTF-8" standalone="no"?>
<svg
   xmlns:svg="http://www.w3.org/2000/svg"
   xmlns="http://www.w3.org/2000/svg"
   width="250"
   height="250"
   viewBox="0 0 250 250"
   style="stroke-width: 0px; background-color: black;"
   version="1.1">
  <g
     id="layer1"
     transform="translate(0,-802.36219)">
    <g
       id="flowRoot3352"
       transform="matrix(1.6545735,0,0,1.6545735,3.5375008,631.77848)">
      <path
         id="path4139"
         style="fill:#FFC336;filter:drop-shadow(0 0 5px #FFC400);"
         d="m 10.216797,119.23241 q -1.7578126,1.75781 -7.2070314,7.20703 0,8.96484 0,36.03515 1.9335938,1.75782 7.2070314,7.20704 1.933594,-1.75782 7.207031,-7.20704 0,-8.96484 0,-36.03515 -1.757812,-1.75781 -7.207031,-7.20703 z m 3.691406,53.96484 q 1.757813,-1.75781 7.207031,-7.20703 8.964844,0 36.035157,0 1.757812,1.93359 7.207031,7.20703 -1.933594,1.93359 -7.207031,7.20703 -9.140625,0 -36.035157,0 -1.757812,-1.75781 -7.207031,-7.20703 z m 46.757813,10.89844 q 0,8.96484 0,36.03515 1.757812,1.75782 7.207031,7.20704 1.757812,-1.9336 7.207031,-7.20704 0,-9.14062 0,-36.03515 -1.757812,-1.75781 -7.207031,-7.20703 -1.757813,1.75781 -7.207031,7.20703 z m 3.691406,46.75781 q -1.933594,-1.75781 -7.207031,-7.20703 -9.140625,0 -36.035157,0 -1.757812,1.75781 -7.207031,7.20703 1.757813,1.75781 7.207031,7.20703 2.285157,0 8.964844,0 6.679688,0 27.070313,0 1.757812,-1.75781 7.207031,-7.20703 z" />
      <path
         id="path4141"
         style="fill:#FFC336;filter:drop-shadow(0 0 5px #FFC400);"
         d="m 143.81055,173.19725 q -1.9336,-1.75781 -7.20703,-7.20703 -9.14063,0 -36.03516,0 -1.757813,1.93359 -7.207032,7.20703 1.757813,1.93359 7.207032,7.20703 8.96484,0 36.03516,0 1.75781,-1.75781 7.20703,-7.20703 z m -54.140628,3.69141 q 1.933594,1.75781 7.207031,7.20703 0,8.96484 0,36.03515 -1.757812,1.75782 -7.207031,7.20704 -1.757813,-1.9336 -7.207031,-7.20704 0,-9.14062 0,-36.03515 1.933593,-1.75781 7.207031,-7.20703 z m 3.691406,53.96484 q 1.757813,-1.75781 7.207032,-7.20703 8.96484,0 36.03516,0 1.75781,1.75781 7.20703,7.20703 -1.9336,1.75781 -7.20703,7.20703 -6.85547,0 -27.07032,0 -2.28515,0 -8.96484,0 -1.757813,-1.75781 -7.207032,-7.20703 z m 43.242192,-46.75781 q -9.14063,8.96484 -36.03516,36.03515 0,-2.8125 0,-10.89843 6.32812,-6.32813 25.13672,-25.13672 2.8125,0 10.89844,0 z" />
    </g>
  </g>
</svg>
